#!OML:ASF F:\VICON\USERDATA\INSTALL\rory3\rory3.ASF
:FULLY-SPECIFIED
:DEGREES
160
root -13.8715 17.677 7.1081 -4.97345 -0.0987361 5.90315
lowerback 11.014 0.484834 -5.60714
upperback 0.713227 -0.0945466 -0.75235
thorax -5.43082 0.0795377 2.38557
lowerneck -21.1922 -4.02121 -11.2933
upperneck 29.8961 -3.97906 6.83272
head 14.1681 -2.07404 3.97747
rclavicle 7.00716e-015 1.59028e-015
rhumerus -35.3159 -13.9612 -80.1802
rradius 29.8121
rwrist 6.18658
rhand -16.4319 10.6207
rfingers 7.12502
rthumb 9.7835 -19.132
lclavicle 7.00716e-015 1.59028e-015
lhumerus -30.7522 1.23129 86.1485
lradius 43.0264
lwrist -1.81865
lhand -20.0885 25.303
lfingers 7.12502
lthumb 6.25437 55.1906
rfemur -22.34 -2.08669 11.6883
rtibia 54.3402
rfoot -11.3579 -5.80496
rtoes -7.17103
lfemur -0.800348 -5.48618 -32.5983
ltibia 24.651
lfoot -10.9598 -7.42173
ltoes -7.53158
161
root -13.8784 17.6889 7.22263 -4.86476 0.264646 5.92546
lowerback 10.8895 0.492594 -5.64346
upperback 0.812332 -0.077492 -0.780809
thorax -5.25782 0.0821553 2.37344
lowerneck -21.2294 -4.14214 -11.3443
upperneck 29.7358 -4.16778 6.95611
head 14.1333 -2.13978 3.9967
rclavicle 2.70844e-015 2.38542e-014
rhumerus -35.2758 -14.1791 -80.0625
rradius 29.6213
rwrist 6.55321
rhand -16.1173 10.1536
rfingers 7.12502
rthumb 10.087 -19.5847
lclavicle 2.70844e-015 2.38542e-014
lhumerus -30.3815 0.90916 86.205
lradius 43.7392
lwrist -1.42909
lhand -19.717 26.0909
lfingers 7.12502
lthumb 6.613 55.9676
rfemur -22.6302 -1.49099 11.4676
rtibia 52.0781
rfoot -11.0761 -5.97044
rtoes -6.2923
lfemur -0.361017 -5.60852 -32.6376
ltibia 24.4322
lfoot -11.1556 -7.63684
ltoes -7.3116
162
root -13.8866 17.705 7.33589 -4.75439 0.673059 5.74633
lowerback 10.7625 0.448344 -5.49618
upperback 0.915899 -0.103127 -0.740558
thorax -5.07529 0.0601528 2.33671
lowerneck -21.2645 -4.23466 -11.3461
upperneck 29.5273 -4.29966 6.98798
head 14.0668 -2.18717 3.9781
rclavicle -6.21202e-017 1.82882e-014
rhumerus -35.267 -14.1655 -80.0011
rradius 29.4538
rwrist 6.91341
rhand -15.694 9.71928
rfingers 7.12502
rthumb 10.4954 -19.9987
lclavicle -6.21202e-017 1.82882e-014
lhumerus -30.0422 0.790332 86.2463
lradius 44.3183
lwrist -1.33417
lhand -19.8157 26.2432
lfingers 7.12502
lthumb 6.51772 56.1229
rfemur -22.8784 -0.212529 11.1998
rtibia 49.6289
rfoot -11.1735 -5.31542
rtoes 1.77457
lfemur 0.0679789 -5.69975 -32.4307
ltibia 24.1965
lfoot -11.3214 -7.84564
ltoes -7.63245
163
root -13.8908 17.7003 7.45263 -4.66144 1.14718 5.61548
lowerback 10.7572 0.352559 -5.38637
upperback 0.906393 -0.213003 -0.668168
thorax -5.07339 0.00463815 2.3673
lowerneck -21.285 -4.23582 -11.3961
upperneck 29.5189 -4.27091 6.96703
head 14.0654 -2.18246 3.98309
rclavicle 3.39176e-015 6.36111e-015
rhumerus -35.4462 -13.9607 -79.8597
rradius 29.2659
rwrist 7.28912
rhand -15.2728 9.60016
rfingers 7.12502
rthumb 10.9016 -20.0969
lclavicle 3.39176e-015 6.36111e-015
lhumerus -29.989 0.784804 86.3336
lradius 44.9169
lwrist -1.06481
lhand -19.9305 26.0676
lfingers 7.12502
lthumb 6.40689 55.9507
rfemur -23.1729 0.0536195 11.1859
rtibia 47.0473
rfoot -10.5698 -4.63114
rtoes -5.25008
lfemur 0.504999 -5.85827 -32.3173
ltibia 24.0391
lfoot -10.895 -8.02098
ltoes -5.51009
164
root -13.8976 17.6991 7.56353 -4.5398 1.63142 5.52798
lowerback 10.8328 0.256733 -5.33598
upperback 0.836783 -0.337733 -0.598327
thorax -5.17876 -0.0531093 2.43134
lowerneck -21.2324 -4.22707 -11.5247
upperneck 29.5068 -4.22343 6.99435
head 14.0481 -2.17317 4.02508
rclavicle -1.03368e-014 2.22639e-014
rhumerus -35.6176 -13.7878 -79.7041
rradius 28.9454
rwrist 7.25818
rhand -15.3057 9.58398
rfingers 7.12502
rthumb 10.8699 -20.1147
lclavicle -1.03368e-014 2.22639e-014
lhumerus -30.0062 0.745062 86.4345
lradius 45.518
lwrist -0.614504
lhand -20.2224 25.96
lfingers 7.12502
lthumb 6.12514 55.8515
rfemur -23.1759 0.652907 10.9625
rtibia 44.5028
rfoot -10.1877 -3.39353
rtoes -6.80524
lfemur 0.874554 -6.12168 -32.2319
ltibia 23.9492
lfoot -10.3741 -8.25078
ltoes -2.23514
165
root -13.9068 17.7001 7.66988 -4.38825 2.07443 5.44711
lowerback 10.8876 0.20053 -5.27573
upperback 0.807275 -0.408524 -0.58102
thorax -5.235 -0.0870668 2.42665
lowerneck -21.2053 -4.25717 -11.6046
upperneck 29.3971 -4.27494 7.11125
head 14.0062 -2.18621 4.0739
rclavicle -8.99501e-015 -8.74653e-015
rhumerus -35.7184 -13.9982 -79.5297
rradius 28.5575
rwrist 7.31794
rhand -15.0584 9.30455
rfingers 7.12502
rthumb 11.1085 -20.3814
lclavicle -8.99501e-015 -8.74653e-015
lhumerus -29.948 0.540411 86.4868
lradius 46.2388
lwrist -0.181523
lhand -20.3221 26.387
lfingers 7.12502
lthumb 6.02883 56.2812
rfemur -23.2354 1.37359 10.7234
rtibia 41.966
rfoot -9.37035 -2.35854
rtoes -6.97059
lfemur 1.15238 -6.16405 -32.0897
ltibia 23.8929
lfoot -10.4596 -8.61644
ltoes -2.0651
166
root -13.9128 17.6969 7.78506 -4.21414 2.52675 5.5009
lowerback 10.7788 0.191322 -5.29965
upperback 0.831103 -0.418401 -0.634545
thorax -5.14842 -0.0945161 2.38462
lowerneck -21.2659 -4.34141 -11.6395
upperneck 29.3223 -4.42076 7.25124
head 14.0093 -2.23089 4.10823
rclavicle -1.24862e-014 -1.23246e-014
rhumerus -35.7691 -14.3452 -79.3161
rradius 28.1817
rwrist 7.71274
rhand -14.141 9.1351
rfingers 7.12502
rthumb 11.9931 -20.5013
lclavicle -1.24862e-014 -1.23246e-014
lhumerus -29.8513 0.222517 86.5462
lradius 46.9169
lwrist 0.114396
lhand -20.2412 26.9341
lfingers 7.12502
lthumb 6.10696 56.8261
rfemur -23.3384 2.04784 10.2413
rtibia 39.4912
rfoot -9.36449 -0.815899
rtoes -10.211
lfemur 1.48664 -6.14537 -32.122
ltibia 23.7907
lfoot -10.7105 -8.9554
ltoes -2.92388
167
root -13.9209 17.6982 7.9076 -4.15233 2.97026 5.51051
lowerback 10.7189 0.193961 -5.30252
upperback 0.851851 -0.413113 -0.68614
thorax -5.09385 -0.0940567 2.33086
lowerneck -21.1988 -4.41106 -11.5704
upperneck 29.2575 -4.55569 7.25728
head 13.9815 -2.27976 4.07153
rclavicle -8.24956e-015 7.55382e-015
rhumerus -35.9021 -14.7635 -79.0676
rradius 27.7898
rwrist 8.33316
rhand -13.4774 9.30202
rfingers 7.12502
rthumb 12.633 -20.296
lclavicle -8.24956e-015 7.55382e-015
lhumerus -29.8174 -0.165998 86.5778
lradius 47.4259
lwrist 0.408968
lhand -20.1316 26.7925
lfingers 7.12502
lthumb 6.21272 56.6814
rfemur -23.209 2.89725 9.78375
rtibia 37.0187
rfoot -9.24705 0.755985
rtoes -13.1737
lfemur 1.93309 -6.25708 -32.1376
ltibia 23.6737
lfoot -10.8055 -9.24394
ltoes -2.33651
168
root -13.9299 17.6983 8.02875 -4.1097 3.44366 5.42054
lowerback 10.6964 0.165102 -5.25371
upperback 0.905112 -0.440227 -0.654766
thorax -5.02306 -0.11078 2.34006
lowerneck -21.2679 -4.48635 -11.5071
upperneck 29.2096 -4.63453 7.13037
head 13.9802 -2.32137 3.99149
rclavicle -1.6201e-014 -8.74653e-015
rhumerus -35.9494 -14.9959 -78.8208
rradius 27.3813
rwrist 8.89295
rhand -13.4184 9.22547
rfingers 7.12502
rthumb 12.6898 -20.369
lclavicle -1.6201e-014 -8.74653e-015
lhumerus -29.6838 -0.381967 86.677
lradius 47.8446
lwrist 0.63014
lhand -20.0861 26.1861
lfingers 7.12502
lthumb 6.25673 56.0737
rfemur -22.9779 3.78655 9.42759
rtibia 34.5925
rfoot -9.10411 2.39798
rtoes -16.2854
lfemur 2.35085 -6.48891 -32.0419
ltibia 23.5372
lfoot -10.722 -9.54884
ltoes -0.821559
169
root -13.9372 17.6969 8.1451 -3.97281 3.99068 5.40567
lowerback 10.6391 0.095671 -5.28746
upperback 0.936957 -0.528125 -0.595588
thorax -4.94959 -0.155129 2.43345
lowerneck -21.4498 -4.5414 -11.5974
upperneck 29.2401 -4.64301 7.08838
head 14.0361 -2.33802 3.98864
rclavicle 6.98231e-015 1.19271e-015
rhumerus -35.9816 -15.1057 -78.5847
rradius 27.0573
rwrist 9.37616
rhand -13.66 8.9783
rfingers 7.12502
rthumb 12.4569 -20.6305
lclavicle 6.98231e-015 1.19271e-015
lhumerus -29.6561 -0.370767 86.8533
lradius 48.3671
lwrist 0.678001
lhand -20.2021 26.0044
lfingers 7.12502
lthumb 6.14474 55.8953
rfemur -22.8296 4.65313 8.91557
rtibia 32.2836
rfoot -8.90115 4.31243
rtoes -18.9157
lfemur 2.72603 -6.67663 -31.9881
ltibia 23.4067
lfoot -10.8006 -9.90705
ltoes -0.150319
170
root -13.9482 17.7008 8.26069 -3.85817 4.58226 5.32717
lowerback 10.6242 0.0032942 -5.30467
upperback 0.948439 -0.647553 -0.526914
thorax -4.91849 -0.213879 2.53232
lowerneck -21.5283 -4.57912 -11.6826
upperneck 29.1932 -4.64897 7.07924
head 14.0364 -2.34883 3.99648
rclavicle 2.44754e-015 1.90833e-014
rhumerus -36.0013 -15.3988 -78.2909
rradius 26.7023
rwrist 10.1062
rhand -14.0831 9.15899
rfingers 7.12502
rthumb 12.0489 -20.4741
lclavicle 2.44754e-015 1.90833e-014
lhumerus -29.7701 -0.404187 86.9501
lradius 48.8927
lwrist 0.653884
lhand -20.793 25.8957
lfingers 7.12502
lthumb 5.57417 55.8024
rfemur -22.7037 5.62186 8.44979
rtibia 30.2244
rfoot -8.6932 6.14658
rtoes -20.9156
lfemur 3.18473 -6.91623 -31.8474
ltibia 23.2706
lfoot -10.8959 -10.245
ltoes 0.12874
171
root -13.958 17.703 8.38057 -3.80435 5.2507 5.30882
lowerback 10.5604 -0.0689175 -5.35967
upperback 1.01791 -0.741904 -0.508679
thorax -4.80099 -0.263354 2.59488
lowerneck -21.4619 -4.62495 -11.7098
upperneck 29.0474 -4.71034 7.091
head 13.968 -2.37444 3.98964
rclavicle 1.62755e-015 1.90833e-014
rhumerus -35.9714 -15.791 -77.9826
rradius 26.282
rwrist 10.736
rhand -14.2495 9.42259
rfingers 7.12502
rthumb 11.8885 -20.2199
lclavicle 1.62755e-015 1.90833e-014
lhumerus -29.828 -0.751111 87.0494
lradius 49.4063
lwrist 0.761757
lhand -21.7195 26.0576
lfingers 7.12502
lthumb 4.67964 55.9859
rfemur -22.5565 6.45378 7.92814
rtibia 28.472
rfoot -8.25879 8.01486
rtoes -21.4549
lfemur 3.70929 -7.24633 -31.8073
ltibia 23.1232
lfoot -10.8122 -10.5921
ltoes 0.144353
172
root -13.9666 17.7012 8.50216 -3.7399 6.02557 5.46107
lowerback 10.4874 -0.114246 -5.51499
upperback 1.07172 -0.816364 -0.578098
thorax -4.69633 -0.301313 2.61883
lowerneck -21.2758 -4.65489 -11.521
upperneck 28.934 -4.82725 7.04518
head 13.8854 -2.4101 3.91344
rclavicle -9.03228e-015 4.77083e-015
rhumerus -36.1383 -16.0244 -77.7864
rradius 25.9584
rwrist 10.7041
rhand -13.9778 9.13821
rfingers 7.12502
rthumb 12.1505 -20.4889
lclavicle -9.03228e-015 4.77083e-015
lhumerus -29.7254 -1.28954 87.1792
lradius 49.6859
lwrist 0.85147
lhand -22.0204 26.1241
lfingers 7.12502
lthumb 4.38907 56.0586
rfemur -22.4345 6.85026 7.29414
rtibia 27.0724
rfoot -7.56171 9.90992
rtoes -21.2677
lfemur 4.21464 -7.57953 -31.9586
ltibia 23.0194
lfoot -10.7964 -11.0209
ltoes -0.262449
173
root -13.9754 17.7044 8.62024 -3.6526 6.86927 5.48892
lowerback 10.5292 -0.172926 -5.53474
upperback 1.04389 -0.901328 -0.603928
thorax -4.74183 -0.341103 2.61561
lowerneck -21.1726 -4.68673 -11.1582
upperneck 28.99 -4.9512 6.82979
head 13.883 -2.45403 3.74203
rclavicle -1.25731e-014 -2.06736e-014
rhumerus -36.5262 -16.0908 -77.6066
rradius 25.8236
rwrist 10.4812
rhand -14.1041 9.16431
rfingers 7.12502
rthumb 12.0287 -20.47
lclavicle -1.25731e-014 -2.06736e-014
lhumerus -29.582 -1.79073 87.3795
lradius 49.7199
lwrist 0.845944
lhand -21.6728 26.1482
lfingers 7.12502
lthumb 4.72471 56.0756
rfemur -22.3094 7.15992 6.82734
rtibia 25.9297
rfoot -6.45689 11.4535
rtoes -20.2364
lfemur 4.63918 -7.97251 -31.9606
ltibia 22.9701
lfoot -10.7726 -11.4582
ltoes -0.252789
174
root -13.9871 17.7009 8.73647 -3.59658 7.7466 5.42635
lowerback 10.6265 -0.297052 -5.53025
upperback 1.01751 -1.0714 -0.577542
thorax -4.80893 -0.422275 2.66659
lowerneck -21.2572 -4.71151 -10.9564
upperneck 29.0976 -5.00718 6.68479
head 13.9425 -2.47484 3.64048
rclavicle 3.14328e-015 -1.39149e-015
rhumerus -36.8337 -16.2819 -77.3451
rradius 25.6837
rwrist 10.7062
rhand -14.1209 9.22491
rfingers 7.12502
rthumb 12.0126 -20.4104
lclavicle 3.14328e-015 -1.39149e-015
lhumerus -29.5702 -2.05743 87.5087
lradius 49.8628
lwrist 0.844686
lhand -20.935 25.8995
lfingers 7.12502
lthumb 5.43713 55.8098
rfemur -21.922 7.07775 6.61832
rtibia 25.0822
rfoot -5.74578 12.6534
rtoes -21.4545
lfemur 4.98874 -8.43147 -31.8718
ltibia 23.0722
lfoot -10.6734 -11.7945
ltoes 0.0948189
